<svg width="198" height="28" viewBox="0 0 198 28" fill="none" xmlns="http://www.w3.org/2000/svg">
<g clip-path="url(#clip0_20_32)">
<path fill-rule="evenodd" clip-rule="evenodd" d="M152.804 -0.483412C145.772 0.262597 140.612 6.09105 141.312 13.9435C141.944 21.0219 148.079 26.1201 155.846 25.3298C162.702 24.6323 167.98 18.7179 167.224 10.9101C166.547 3.90833 160.655 -1.3166 152.804 -0.483412ZM69.7276 25.2025L73.5893 25.2163L73.6281 15.7231L79.068 15.7097L84.4598 25.1878L88.776 25.2085C88.5695 24.4239 85.5115 19.2008 84.6982 17.7523C84.3482 17.1291 83.4971 15.8113 83.3193 15.1302C85.3008 13.997 87.2306 13.0754 87.9698 10.0958C89.4487 4.13311 85.6256 -0.218835 79.3463 -0.299945C76.2168 -0.340416 72.797 -0.383247 69.6825 -0.276843C69.5092 1.53354 69.6449 4.10175 69.6483 5.99274C69.6521 8.13431 69.6567 10.2759 69.6528 12.4175C69.6495 14.2799 69.5211 24.2094 69.7276 25.2025ZM177.965 25.1935L181.86 25.2288L181.888 8.27646L184.625 11.3907C184.956 11.8271 185.234 12.016 185.562 12.448C186.138 13.2065 186.793 13.8434 187.385 14.6153L194.683 23.1304C195.256 23.6958 196.161 24.7296 196.471 25.3168L197.995 25.3596L197.985 -0.376839L194.043 -0.381392L193.984 16.4971L191.155 13.2582C190.95 13.0174 190.928 12.9395 190.708 12.7029C189.168 11.0458 185.766 6.69946 184.463 5.4189L180.618 1.00017C179.62 0.0228085 179.975 -0.633997 178.024 -0.474812L177.965 25.1935ZM152.711 3.4188C141.156 5.62159 143.717 23.3341 155.866 21.4991C160.446 20.8074 164.018 16.3642 163.165 10.8391C162.451 6.21162 158.162 2.37955 152.711 3.4188ZM-0.00488281 25.1863L3.99205 25.2048L4.0667 14.1363L16.2576 14.1036L16.2603 25.203L20.2153 25.2091C20.4057 24.4307 20.4537 0.809963 20.2462 -0.385439L16.3175 -0.385945L16.2506 10.24L4.08566 10.2847L4.05278 -0.369926L0.0251478 -0.385608L-0.00488281 25.1863ZM113.501 3.46855L126.173 3.45303L115.571 19.703C115.002 20.533 112.283 24.5762 112.097 25.1807L132.693 25.2158L132.761 21.3866L119.028 21.3763C119.249 20.7458 120.199 19.3757 120.675 18.6902C121.298 17.7933 121.824 16.9406 122.418 16.0163C123.63 14.1295 124.818 12.4702 125.961 10.5865L132.133 1.08483C132.431 0.632566 132.88 0.215044 132.85 -0.381224L113.574 -0.384596L113.501 3.46855ZM31.9954 13.0434L35.9314 12.65C36.1064 9.71267 36.9471 7.46148 38.409 5.96441C41.3755 2.92675 46.4713 2.31952 50.2055 4.87069C52.8202 6.65696 53.95 9.5528 54.0293 12.706L57.9449 13.0793C58.342 9.29008 56.7108 5.85649 54.4586 3.31038C52.5946 1.20287 49.0796 -0.542263 44.9701 -0.569412C39.6311 -0.604824 34.8216 2.50214 32.8901 7.41983C32.3173 8.87813 31.7751 11.2782 31.9954 13.0434ZM32.4116 15.678C33.233 21.3289 38.8991 25.4099 44.9733 25.3988C51.5462 25.3866 56.3348 21.1276 57.5525 15.7418L53.5609 15.4381C52.6389 17.5286 51.9676 18.6351 50.5577 19.7445C49.2078 20.8063 47.2322 21.6493 44.9715 21.6407C42.7412 21.6325 40.669 20.7991 39.3688 19.763C37.1038 17.9584 37.1511 16.6794 36.3067 15.4845L32.4116 15.678ZM98.7485 25.2308L102.789 25.2084L102.785 -0.351208L98.7414 -0.407361L98.7485 25.2308ZM73.6221 11.8846C77.7943 11.8423 84.1608 13.007 84.1722 7.84849C84.1838 2.61934 77.8557 3.83835 73.6177 3.80378L73.6221 11.8846ZM103.494 42.5882L104.346 42.6108C104.629 42.2086 105.333 39.9072 105.482 39.3834C105.64 38.8289 106.248 36.6508 106.67 36.213L108.754 42.563L109.743 42.5932L112.435 34.6114L111.465 34.5917C110.97 35.8055 109.745 40.3451 109.217 41.0435C108.352 39.3854 107.843 36.3692 107.032 34.5952L106.192 34.5937C105.817 35.2272 105.314 36.9936 105.089 37.7184L104.151 40.6317C103.916 41.0801 104.078 40.8103 103.871 41.0167L101.782 34.5903L100.845 34.5999C100.92 35.2599 103.213 42.1976 103.494 42.5882ZM73.4358 42.6221L74.2326 42.6184C74.2577 42.5878 74.2837 42.4831 74.2916 42.5032C74.2993 42.5231 74.3353 42.4141 74.3445 42.3787C74.4931 41.8118 74.4106 41.7636 74.3951 41.1147C74.3826 40.5918 74.4101 40.069 74.4066 39.5441C74.3997 38.5013 74.4292 37.4777 74.4264 36.444C75.3385 37.3342 76.142 38.5775 76.9974 39.623C77.4449 40.1699 77.8262 40.7611 78.2912 41.3191C78.5572 41.6383 78.6897 41.7968 78.9247 42.1071C79.3284 42.6398 79.2875 42.5742 80.1258 42.6283L80.1184 36.5459C80.1198 36.2257 80.1318 35.8555 80.1238 35.5417C80.1083 34.9261 80.1434 34.9444 79.9144 34.5824L79.3463 34.6072C79.3217 34.6367 79.297 34.6512 79.289 34.7225L79.1502 35.2539C79.0392 36.2343 79.2838 39.5427 79.1299 40.751C78.5184 40.2839 77.1622 38.3462 76.5178 37.533C76.0613 36.957 75.715 36.4651 75.2258 35.8321C74.2596 34.5815 74.6948 34.6025 73.5113 34.581L73.4358 42.6221ZM88.4042 42.587L93.9644 42.5902L93.9434 41.8577L89.3752 41.8548L89.34 38.9203L93.344 38.9291L93.3527 38.1885L89.3568 38.1401L89.3536 35.3923C89.8265 35.4041 93.4185 35.5188 93.8535 35.261L93.86 34.8326C93.5774 34.5561 93.4556 34.5756 92.7024 34.5893C92.2275 34.5979 91.7532 34.6018 91.2779 34.605C90.3235 34.6112 89.3695 34.6229 88.4154 34.6333L88.4042 42.587ZM119.37 40.9639L119.093 41.5432C119.537 42.5295 121.299 42.7362 122.249 42.6964C123.508 42.6435 124.614 42.0686 124.835 40.9675C125.487 37.7214 121.261 38.7947 120.217 36.9742C119.893 35.8422 121.426 34.6935 123.552 35.6874C124.371 36.0705 124.161 36.1628 124.6 35.4038C123.675 34.006 118.717 33.9656 119.34 37.1863C119.818 39.6562 125.622 38.8247 123.677 41.2681C123.245 41.811 122.316 42.0099 121.432 41.8845C120.287 41.7218 120.065 41.2083 119.37 40.9639ZM49.746 14.417C52.05 14.2272 56.3414 14.7329 58.8958 14.8774C60.9325 14.9927 66.757 15.7108 67.8313 15.6758C65.7092 14.8681 54.1226 12.9792 51.7831 13.3449L49.7457 13.3808L49.774 13.7493C49.7645 13.9972 49.7373 14.13 49.746 14.417ZM38.7395 14.4816C40.1339 14.6373 42.5774 14.3579 44.1192 14.3477C45.9653 14.3354 47.9276 14.4813 49.746 14.417C49.7373 14.13 49.7645 13.9972 49.774 13.7493L49.7457 13.3808L51.7831 13.3449L51.0898 13.1533C50.8295 13.1287 50.4956 13.1358 50.2277 13.1287L37.7437 13.3425L38.8813 13.3398C38.3412 13.5552 38.3027 13.2132 38.2872 13.836C38.2669 14.6516 38.1027 13.8693 38.7395 14.4816ZM38.7395 14.4816C38.1027 13.8693 38.2669 14.6516 38.2872 13.836C38.3027 13.2132 38.3412 13.5552 38.8813 13.3398L37.7437 13.3425C35.4563 13.0746 23.9567 14.7985 22.2225 15.6976C24.5989 15.6895 27.7543 15.0833 30.2915 14.9133C32.3527 14.775 36.966 14.273 38.7395 14.4816Z" fill="#F9FAFB"/>
</g>
<defs>
<clipPath id="clip0_20_32">
<rect width="198" height="28" fill="white"/>
</clipPath>
</defs>
</svg>
