<svg width="238" height="52" viewBox="0 0 238 52" fill="none" xmlns="http://www.w3.org/2000/svg">
<g clip-path="url(#clip0_20_5)">
<path fill-rule="evenodd" clip-rule="evenodd" d="M183.673 0.183676C175.221 1.08014 169.019 8.08407 169.86 17.5203C170.619 26.0261 177.994 32.1527 187.33 31.2029C195.571 30.3648 201.915 23.2575 201.007 13.875C200.193 5.46115 193.111 -0.817552 183.673 0.183676ZM83.814 31.0499L88.4559 31.0665L88.5025 19.6587L95.0414 19.6427L101.522 31.0323L106.711 31.0572C106.462 30.1143 102.787 23.8379 101.809 22.0972C101.388 21.3483 100.365 19.7647 100.151 18.9462C102.533 17.5845 104.853 16.4771 105.742 12.8965C107.519 5.73126 102.924 0.501613 95.3759 0.404145C91.6141 0.355512 87.5035 0.304042 83.7598 0.431906C83.5515 2.60741 83.7146 5.69357 83.7187 7.96594C83.7233 10.5394 83.7287 13.1129 83.7241 15.6864C83.7201 17.9245 83.5658 29.8566 83.814 31.0499ZM213.917 31.0392L218.6 31.0815L218.634 10.7102L221.923 14.4525C222.321 14.977 222.655 15.2039 223.049 15.7231C223.742 16.6345 224.529 17.3999 225.24 18.3276L234.013 28.5599C234.701 29.2393 235.79 30.4817 236.162 31.1873L237.994 31.2388L237.982 0.311743L233.243 0.306271L233.173 20.5888L229.772 16.6967C229.526 16.4074 229.5 16.3138 229.235 16.0295C227.384 14.0382 223.294 8.81519 221.728 7.27637L217.107 1.96647C215.907 0.791992 216.334 0.00272159 213.988 0.194011L213.917 31.0392ZM183.562 4.87289C169.672 7.51994 172.751 28.8047 187.354 26.5996C192.859 25.7684 197.153 20.4291 196.128 13.7897C195.269 8.22896 190.114 3.62404 183.562 4.87289ZM-0.00585938 31.0305L4.79853 31.0527L4.88827 17.7519L19.542 17.7126L19.5452 31.0505L24.2992 31.0578C24.5281 30.1224 24.5858 1.7379 24.3363 0.301408L19.614 0.3008L19.5336 13.0697L4.91106 13.1234L4.87153 0.320051L0.0302381 0.301205L-0.00585938 31.0305ZM136.43 4.93267L151.663 4.91403L138.918 24.4413C138.235 25.4387 134.966 30.2973 134.743 31.0238L159.5 31.0659L159.581 26.4644L143.074 26.4521C143.34 25.6944 144.482 24.048 145.054 23.2243C145.803 22.1465 146.435 21.1217 147.149 20.0111C148.606 17.7438 150.034 15.7498 151.407 13.4862L158.827 2.0682C159.185 1.52473 159.725 1.023 159.688 0.306474L136.519 0.302421L136.43 4.93267ZM38.4591 16.4386L43.1903 15.9658C43.4006 12.4361 44.4112 9.7309 46.1684 7.9319C49.7342 4.2816 55.8595 3.5519 60.3481 6.61759C63.491 8.76413 64.849 12.244 64.9444 16.0331L69.6509 16.4817C70.1283 11.9283 68.1675 7.80221 65.4604 4.7426C63.2197 2.21004 58.9947 0.112956 54.055 0.0803314C47.6373 0.0377777 41.8563 3.77136 39.5346 9.68085C38.8461 11.4333 38.1943 14.3174 38.4591 16.4386ZM38.9594 19.6046C39.9468 26.3951 46.7575 31.2992 54.0589 31.2858C61.9596 31.2712 67.7156 26.1532 69.1793 19.6812L64.3813 19.3162C63.273 21.8283 62.4661 23.158 60.7714 24.4912C59.1488 25.7672 56.774 26.7801 54.0566 26.7698C51.3757 26.7599 48.885 25.7585 47.3221 24.5135C44.5995 22.3448 44.6564 20.8078 43.6414 19.372L38.9594 19.6046ZM118.698 31.084L123.555 31.057L123.55 0.342543L118.689 0.275065L118.698 31.084ZM88.4952 15.0461C93.5103 14.9952 101.163 16.3948 101.177 10.196C101.191 3.91219 93.5842 5.37705 88.49 5.33551L88.4952 15.0461ZM124.402 51.942L125.426 51.9691C125.767 51.4858 126.612 48.7202 126.792 48.0908C126.982 47.4246 127.712 44.8071 128.219 44.2811L130.724 51.9118L131.914 51.948L135.149 42.3564L133.983 42.3327C133.388 43.7913 131.916 49.2465 131.281 50.0858C130.241 48.0933 129.629 44.4687 128.654 42.337L127.645 42.3352C127.195 43.0965 126.59 45.2191 126.319 46.09L125.191 49.591C124.909 50.1298 125.104 49.8056 124.855 50.0536L122.344 42.3311L121.218 42.3427C121.308 43.1358 124.065 51.4727 124.402 51.942ZM88.2714 51.9827L89.2291 51.9782C89.2593 51.9416 89.2906 51.8157 89.3001 51.8398C89.3093 51.8637 89.3525 51.7328 89.3636 51.6903C89.5423 51.009 89.443 50.9511 89.4245 50.1713C89.4094 49.5429 89.4424 48.9148 89.4382 48.284C89.4299 47.0309 89.4654 45.8008 89.462 44.5587C90.5584 45.6284 91.5242 47.1224 92.5525 48.3788C93.0903 49.0359 93.5487 49.7464 94.1077 50.4169C94.4273 50.8005 94.5866 50.991 94.8691 51.3638C95.3543 52.004 95.3051 51.9251 96.3128 51.9902L96.304 44.6811C96.3056 44.2963 96.3201 43.8515 96.3104 43.4744C96.2919 42.7345 96.334 42.7566 96.0587 42.3216L95.3759 42.3514C95.3463 42.3868 95.3166 42.4043 95.307 42.49L95.1402 43.1285C95.0067 44.3066 95.3007 48.2823 95.1158 49.7342C94.3807 49.1729 92.7505 46.8444 91.9759 45.8673C91.4272 45.1751 91.011 44.584 90.4229 43.8233C89.2615 42.3206 89.7847 42.3457 88.3621 42.32L88.2714 51.9827ZM106.264 51.9405L112.947 51.9444L112.922 51.0641L107.431 51.0607L107.389 47.5344L112.201 47.5449L112.212 46.655L107.409 46.5968L107.405 43.2948C107.973 43.309 112.291 43.4468 112.814 43.137L112.822 42.6223C112.482 42.29 112.335 42.3135 111.43 42.3299C110.859 42.3402 110.289 42.3449 109.718 42.3487C108.571 42.3562 107.424 42.3702 106.277 42.3828L106.264 51.9405ZM143.485 49.9902L143.152 50.6862C143.686 51.8714 145.803 52.1199 146.945 52.072C148.46 52.0084 149.789 51.3176 150.054 49.9944C150.838 46.0937 145.758 47.3834 144.504 45.1958C144.114 43.8355 145.956 42.4551 148.512 43.6495C149.497 44.1098 149.244 44.2207 149.772 43.3086C148.66 41.629 142.701 41.5803 143.449 45.4507C144.023 48.4187 151 47.4195 148.662 50.3557C148.143 51.008 147.026 51.2471 145.964 51.0964C144.587 50.9008 144.32 50.2838 143.485 49.9902ZM59.7957 18.0893C62.5652 17.8611 67.7235 18.4688 70.794 18.6425C73.2421 18.7811 80.2432 19.6439 81.5347 19.6019C78.9838 18.6313 65.0565 16.3614 62.2443 16.8009L59.7953 16.8441L59.8294 17.2868C59.8179 17.5847 59.7852 17.7444 59.7957 18.0893ZM46.5657 18.1669C48.2417 18.3539 51.1789 18.0181 53.0322 18.006C55.2513 17.9912 57.6099 18.1665 59.7957 18.0893C59.7852 17.7444 59.8179 17.5847 59.8294 17.2868L59.7953 16.8441L62.2443 16.8009L61.411 16.5707C61.0981 16.5411 60.6968 16.5496 60.3747 16.5411L45.3686 16.7981L46.7361 16.7948C46.087 17.0536 46.0406 16.6426 46.022 17.391C45.9976 18.3711 45.8002 17.4311 46.5657 18.1669ZM46.5657 18.1669C45.8002 17.4311 45.9976 18.3711 46.022 17.391C46.0406 16.6426 46.087 17.0536 46.7361 16.7948L45.3686 16.7981C42.6192 16.4761 28.7965 18.5476 26.7119 19.6281C29.5684 19.6184 33.3613 18.8899 36.411 18.6856C38.8886 18.5195 44.4339 17.9162 46.5657 18.1669Z" fill="#1F2937"/>
</g>
<defs>
<clipPath id="clip0_20_5">
<rect width="238" height="52" fill="white"/>
</clipPath>
</defs>
</svg>
